<?xml version="1.0" standalone="no"?>
<!DOCTYPE svg PUBLIC "-//W3C//DTD SVG 20010904//EN"
 "http://www.w3.org/TR/2001/REC-SVG-20010904/DTD/svg10.dtd">
<svg version="1.0" xmlns="http://www.w3.org/2000/svg"
 width="1000.000000pt" height="1000.000000pt" viewBox="0 0 1000.000000 1000.000000"
 preserveAspectRatio="xMidYMid meet">
<metadata>
Created by potrace 1.11, written by Peter Selinger 2001-2013
</metadata>
<g transform="translate(0.000000,1000.000000) scale(0.100000,-0.100000)"
fill="#000000" stroke="none">
<path d="M0 5000 l0 -5000 5000 0 5000 0 0 5000 0 5000 -5000 0 -5000 0 0
-5000z m7700 4179 c19 -6 36 -13 37 -14 2 -1 -4 -24 -12 -52 -11 -37 -20 -50
-33 -49 -9 0 -20 4 -23 9 -18 24 -284 25 -446 1 l-41 -6 -7 47 c-4 26 -3 51 2
56 27 27 451 34 523 8z m710 -14 c30 -9 64 -18 74 -20 11 -3 24 -9 29 -14 11
-11 -13 -82 -31 -88 -7 -3 -41 3 -75 13 -50 15 -97 19 -252 20 l-190 1 -5 47
c-6 50 -9 48 60 60 61 10 337 -3 390 -19z m-6534 -24 c50 -35 67 -62 95 -142
58 -172 -48 -379 -193 -379 -37 0 -96 25 -126 52 -85 80 -112 260 -56 370 48
94 96 127 185 128 46 0 63 -5 95 -29z m6020 -38 c44 -22 74 -76 74 -135 0
-142 -188 -191 -250 -64 -27 57 -26 103 6 150 42 62 104 80 170 49z m-2727
-84 c29 -7 55 -18 58 -25 2 -7 -1 -31 -7 -54 -11 -41 -13 -42 -43 -36 -139 28
-289 31 -437 7 -30 -5 -58 -6 -62 -3 -3 4 -9 28 -13 53 l-7 47 69 11 c37 6 86
13 108 15 70 7 278 -2 334 -15z m676 -9 c110 -19 153 -33 160 -53 8 -20 -21
-92 -36 -90 -8 1 -33 9 -55 17 -85 31 -287 41 -420 20 -31 -4 -31 -4 -38 47
-4 28 -5 54 -2 56 19 20 285 22 391 3z m-445 -79 c38 -26 71 -97 64 -140 -13
-85 -74 -137 -151 -128 -113 12 -160 153 -81 242 47 55 112 64 168 26z m-4207
-125 c18 -7 50 -33 70 -56 115 -134 84 -390 -56 -461 -73 -38 -163 -24 -213
33 -105 120 -111 311 -11 424 62 70 136 91 210 60z m1457 -6 c86 -44 131 -130
133 -255 2 -72 -1 -87 -31 -148 -43 -88 -84 -119 -161 -125 -79 -6 -130 21
-176 92 -79 124 -64 309 32 397 65 61 134 74 203 39z m-716 -310 c106 -27 189
-73 267 -150 146 -143 209 -297 214 -525 6 -233 -69 -419 -224 -562 -55 -50
-136 -100 -193 -119 -24 -8 -50 -17 -58 -21 -56 -22 -197 -16 -295 12 -152 44
-269 138 -355 286 -146 250 -140 560 17 813 57 93 166 189 263 233 118 54 240
65 364 33z m4480 -335 c38 -8 71 -17 74 -20 11 -11 -24 -100 -39 -98 -8 1 -38
6 -68 12 -68 14 -215 14 -338 0 -52 -6 -99 -7 -103 -2 -5 4 -10 28 -12 53 l-3
45 80 11 c118 17 328 16 409 -1z m664 -5 c92 -12 182 -38 188 -55 8 -19 -30
-90 -46 -87 -7 2 -39 10 -69 19 -41 12 -107 17 -241 18 l-185 2 -6 24 c-4 13
-7 36 -8 51 -1 25 2 27 47 31 97 7 249 6 320 -3z m-6238 -50 c46 -13 103 -71
132 -135 18 -40 22 -66 20 -130 -2 -91 -5 -135 -11 -130 -2 2 -13 -15 -25 -37
-59 -117 -205 -144 -295 -56 -133 130 -104 400 51 477 48 23 76 26 128 11z
m5830 -39 c36 -26 55 -69 54 -123 -1 -83 -52 -132 -140 -132 -81 0 -124 50
-124 144 0 61 26 104 74 126 38 17 101 10 136 -15z m-3802 -11 c98 -73 141
-255 85 -363 -8 -16 -12 -35 -9 -43 3 -7 1 -13 -3 -11 -5 1 -25 -15 -46 -36
-46 -47 -71 -57 -140 -57 -45 0 -60 5 -96 33 -107 81 -136 256 -65 394 44 87
88 115 176 111 50 -3 72 -9 98 -28z m-1709 -690 c88 -25 151 -135 151 -265 0
-236 -196 -357 -341 -211 -53 53 -72 109 -73 211 0 77 3 98 26 146 47 103 138
148 237 119z m1497 -35 c132 -65 172 -285 80 -429 -54 -84 -146 -117 -230 -82
-134 56 -188 298 -96 431 72 104 148 129 246 80z m-733 -331 c101 -51 153
-186 126 -323 -24 -124 -102 -201 -204 -201 -64 0 -97 14 -141 62 -54 56 -76
125 -76 233 0 87 68 201 137 231 42 18 120 17 158 -2z"/>
</g>
</svg>
